<svg xmlns="http://www.w3.org/2000/svg" viewBox="0 0 512 512">
<g transform="translate(0,512) scale(0.1,-0.1)" fill="#3B4A8C" stroke="none">
    <path d="M2335 5109 c-496 -46 -977 -238 -1370 -547 -90 -71 -336 -317 -407
-407 -261 -332 -437 -720 -513 -1132 -119 -645 19 -1328 377 -1864 120 -179
184 -257 342 -414 406 -403 896 -643 1476 -721 166 -23 472 -23 640 0 577 77
1078 324 1485 731 745 745 956 1850 540 2825 -75 175 -183 359 -319 540 -87
117 -331 363 -447 453 -370 285 -790 462 -1239 523 -135 18 -436 25 -565 13z
m-948 -939 c7 -14 13 -49 13 -77 l0 -53 56 0 c74 0 94 -12 94 -55 0 -43 -20
-55 -93 -55 l-55 0 -4 -66 c-4 -68 -20 -94 -58 -94 -38 0 -54 26 -58 94 l-4
66 -55 0 c-73 0 -93 12 -93 55 0 43 20 55 93 55 l55 0 4 66 c3 51 9 70 24 81
28 20 66 12 81 -17z m1686 -254 c510 -291 515 -294 488 -345 -27 -50 -36 -47
-525 233 -256 146 -471 266 -477 266 -6 0 -219 -119 -474 -265 -254 -146 -471
-265 -483 -265 -12 0 -29 11 -38 26 -36 53 -33 55 491 355 307 175 498 278
510 276 11 -2 240 -128 508 -281z m742 270 c14 -10 20 -30 23 -80 l4 -66 55 0
c70 0 93 -12 93 -50 0 -45 -23 -60 -91 -60 l-59 0 0 -51 c0 -95 -50 -139 -100
-89 -16 16 -20 33 -20 80 l0 60 -60 0 c-47 0 -64 4 -80 20 -24 24 -25 38 -4
68 13 19 24 22 80 22 l64 0 0 58 c0 89 42 127 95 88z m-860 -460 c248 -143
374 -221 382 -237 10 -18 13 -154 13 -556 l0 -533 74 0 c103 0 106 -5 106
-173 0 -122 -1 -129 -25 -152 l-24 -25 -921 0 -921 0 -24 25 c-24 23 -25 30
-25 152 0 168 3 173 106 173 l74 0 0 533 c0 405 3 538 13 557 15 30 739 449
777 449 14 0 181 -90 395 -213z m-1313 -343 c17 -15 18 -42 18 -426 0 -368 -2
-412 -17 -429 -21 -24 -48 -23 -73 2 -19 19 -20 33 -20 429 l0 410 22 15 c29
20 47 20 70 -1z m1906 1 l22 -15 0 -410 c0 -396 -1 -410 -20 -429 -27 -27 -55
-25 -80 7 -20 26 -21 33 -18 431 3 386 4 404 22 418 25 18 46 18 74 -2z
m-2068 -1373 c5 -11 10 -38 10 -60 0 -39 2 -41 29 -41 36 0 83 -17 93 -33 27
-42 -13 -87 -77 -87 l-45 0 0 -41 c0 -58 -14 -79 -53 -79 -45 0 -57 16 -57 72
l0 48 -43 0 c-51 0 -87 22 -87 54 0 40 23 58 78 64 l52 5 0 46 c0 26 5 52 12
59 20 20 76 15 88 -7z m2250 0 c5 -11 10 -37 10 -59 l0 -39 52 -5 c110 -11
104 -118 -7 -118 l-45 0 0 -41 c0 -59 -14 -79 -55 -79 -41 0 -55 20 -55 79 0
40 -1 41 -34 41 -70 0 -106 31 -91 79 6 21 53 41 96 41 27 0 29 3 29 41 0 59
14 79 55 79 24 0 38 -6 45 -19z m-1510 -346 l0 -335 340 0 340 0 0 335 0 335
190 0 190 0 0 -335 0 -334 446 -3 c428 -3 446 -4 460 -22 11 -15 14 -58 14
-183 0 -150 -2 -165 -20 -183 -20 -20 -33 -20 -1624 -20 l-1605 0 -15 22 c-22
31 -23 334 -2 364 14 18 32 19 460 22 l446 3 0 334 0 335 190 0 190 0 0 -335z"/>
    <path d="M2473 3521 c-53 -24 -100 -88 -109 -148 -28 -186 199 -302 332 -169
24 24 47 59 54 83 38 125 -59 253 -190 253 -25 0 -64 -9 -87 -19z"/>
    <path d="M2310 2650 l0 -250 248 2 247 3 3 248 2 247 -250 0 -250 0 0 -250z"/>
  </g>
</svg>
